<?xml version="1.0" encoding="UTF-8"?>
<svg width="752pt" height="752pt" version="1.1" viewBox="0 0 752 752" xmlns="http://www.w3.org/2000/svg">
 <path d="m336.54 314.41-22.84-22.84 0.027344-30.086-17.797 0.046875 0.03125-39.137 161.51-0.40234-0.039062 39.125-17.797 0.050781-0.070312 88.395c24.062 17.07 40.828 43.684 44.691 74.367l-38.094 0.10547-89.891-89.895v-76.535h-19.734zm51.391 135.11-0.070312 98.625c-0.011719 10.391-5.1484 18.93-11.426 18.938-6.2578 0.015625-11.398-8.4688-11.383-18.879l0.10156-121.46zm-25.27-25.27-93.805 0.23828c3.1133-24.473 14.422-46.383 31.062-62.984zm-122.39-178.2 266.88 266.89-13.953 13.953-266.88-266.89z" fill-rule="evenodd"/>
</svg>
